<svg id="Layer_1" data-name="Layer 1" xmlns="http://www.w3.org/2000/svg" viewBox="0 0 192 62"><defs><style>.cls-1{fill:transparent;}.cls-2{fill:#bb9ac8;}.cls-3{fill:#ffebca;}.cls-4{fill:#8d4c9e;}.cls-5{fill:#8c4c9e;}.cls-6{fill:#00b1ad;}.cls-7{fill:#fbb423;}.cls-8{fill:#fbb424;}.cls-9{fill:#8d4d9e;}.cls-10{fill:#01b1ad;}.cls-11{fill:#04b1ad;}.cls-12{fill:#05b1ad;}.cls-13{fill:#06b1ad;}.cls-14{fill:#03b1ad;}.cls-15{fill:#02b1ad;}</style></defs><title>echo-main-logo-01</title><path class="cls-1" d="M1.6,6.57c0-1.42,0-2.83,0-4.25,0-.34.07-.47.41-.4a1.71,1.71,0,0,0,.32,0h159a.18.18,0,0,1,0,.21,5.11,5.11,0,0,1-.71.51,1.91,1.91,0,1,0,2.3,0c-.24-.2-.56-.28-.81-.49a.17.17,0,0,1,0-.21q14.17,0,28.35,0c.55,0,.66.1.66.65q0,28.68,0,57.35c0,.55-.11.66-.66.66q-94.11,0-188.23,0c-.55,0-.68-.11-.65-.66,0-1.28,0-2.56,0-3.84a1,1,0,0,1,.27-.17,4.39,4.39,0,0,1,1.35-.09H32.94c1.41,0,1.41,0,1.4-1.42,0-1.22,0-1.27-1.26-1.27h-26c-2,0-2,0-2-2.06V34.4c0-.32,0-.64,0-1,0-.87.29-1.11,1.18-1.17.35,0,.7,0,1,0H31.13c1.66,0,1.8-.17,1.61-1.87-.05-.41-.22-.63-.65-.64l-1,0H6.94c-1.79,0-1.91-.12-1.91-1.9V10.93c0-1.24.18-1.4,1.46-1.41H33.08c.54,0,.77-.25.78-.78,0-2.19.08-1.9-1.72-1.9H3.22a4.72,4.72,0,0,1-1.35-.08A1.24,1.24,0,0,1,1.6,6.57Z"/><path class="cls-2" d="M1.6,6.57l.18,0A2.13,2.13,0,0,1,2,8.05V48.18c0,2.24,0,4.48,0,6.72a1.61,1.61,0,0,1-.24,1.15l-.18,0Z"/><path class="cls-3" d="M161.31,2.07a.76.76,0,0,0,0-.15h.8v.14A.53.53,0,0,1,161.31,2.07Z"/><path class="cls-4" d="M127.26,31.31c0,8,0,15.91,0,23.86,0,.75-.21,1-.93.91a15.57,15.57,0,0,0-2.16,0c-.46,0-.6-.14-.59-.59,0-1.71,0-3.42,0-5.13,0-5.66,0-11.32,0-17,0-.65-.15-.86-.84-.86q-16.05,0-32.11,0c-.64,0-.79.18-.79.8,0,7.29,0,14.58,0,21.86,0,.67-.11,1-.86.89a10.28,10.28,0,0,0-2,0c-.65.06-.78-.19-.78-.8,0-6.28,0-12.55,0-18.82,0-9.66,0-19.33,0-29,0-.72.18-1,.92-.92a9.43,9.43,0,0,0,1.84,0c.68-.07.9.12.89.85,0,5,0,10,0,15.06,0,2.05,0,4.11,0,6.16,0,.57.1.8.74.79q16.13,0,32.27,0c.65,0,.73-.26.73-.81,0-7,0-14.09,0-21.14,0-.7.14-1,.91-.93a8.14,8.14,0,0,0,1.91,0c.76-.08.86.23.86.9C127.25,15.4,127.26,23.36,127.26,31.31Z"/><path class="cls-5" d="M1.78,56.05q0-3.57,0-7.12V7.63c0-.35,0-.7,0-1l9.13,0c7.47,0,14.94,0,22.42,0,.71,0,.94.18.87.88a10.48,10.48,0,0,0,0,1.68c0,.49-.14.7-.63.64a5.23,5.23,0,0,0-.56,0c-8.92,0-17.83,0-26.75,0-.75,0-.92.21-.92.93,0,5.95,0,11.9,0,17.86,0,.77.25.91,1,.91,8.63,0,17.25,0,25.87,0,.72,0,1,.2.86.89s.32,1.72-.18,2.14-1.37.12-2.09.12q-12.24,0-24.5,0c-.68,0-.91.14-.91.87q0,9.33,0,18.66c0,.66.16.84.83.84,9.18,0,18.37,0,27.55,0,.77,0,1.05.2,1,1s.29,1.64-.15,2.08-1.37.14-2.08.14H2.74Z"/><path class="cls-5" d="M80.55,6.57c-3.25,3.29-6.4,6.51-9.59,9.7Q64.29,23,57.56,29.6c-.35.35-.33.52,0,.87q7,7.5,14.06,15L81,55.53c.12.13.3.22.31.54H76.26c-.29,0-.42-.2-.58-.37q-9.8-10.79-19.6-21.55l-2.2-2.43a2.73,2.73,0,0,1,.07-3.2L63.41,19q5.88-6,11.76-11.9a1.45,1.45,0,0,1,1.18-.5C77.73,6.59,79.11,6.57,80.55,6.57Z"/><path class="cls-4" d="M43.07,31.32c0-8,0-15.95,0-23.93,0-.67.16-.89.83-.84a18,18,0,0,0,2.32,0c.41,0,.61.11.55.54,0,.13,0,.27,0,.4q0,23.82,0,47.63c0,.77-.18,1-1,.95a14.16,14.16,0,0,0-2.16,0c-.45,0-.6-.12-.59-.58,0-1.28,0-2.56,0-3.84Z"/><path class="cls-6" d="M154.37,31.22a7.42,7.42,0,0,1,7.56-7.53,7.54,7.54,0,1,1-7.56,7.53Z"/><path class="cls-7" d="M176.07,21.47a3.78,3.78,0,0,1-3.75,3.86,3.87,3.87,0,0,1-3.93-3.79,3.93,3.93,0,0,1,3.86-3.89A3.86,3.86,0,0,1,176.07,21.47Z"/><path class="cls-7" d="M175.41,41.61a3.82,3.82,0,0,1-3.81,3.81,3.86,3.86,0,0,1-3.85-3.87,3.78,3.78,0,0,1,3.91-3.77A3.73,3.73,0,0,1,175.41,41.61Z"/><path class="cls-7" d="M176.06,27.85a3.8,3.8,0,0,1,3.84,3.77,3.85,3.85,0,0,1-3.8,3.91,3.91,3.91,0,0,1-3.87-3.87A3.85,3.85,0,0,1,176.06,27.85Z"/><path class="cls-7" d="M166.15,17a3.75,3.75,0,0,1-3.76,3.83A3.85,3.85,0,0,1,158.5,17a3.9,3.9,0,0,1,3.81-3.85A3.79,3.79,0,0,1,166.15,17Z"/><path class="cls-7" d="M161.44,49.2a3.72,3.72,0,0,1-3.83-3.76,3.82,3.82,0,1,1,7.64,0A3.77,3.77,0,0,1,161.44,49.2Z"/><path class="cls-5" d="M152.18,24.67a3.82,3.82,0,0,1-3.84-3.78A3.88,3.88,0,0,1,152.18,17a3.83,3.83,0,0,1,3.82,3.8A3.78,3.78,0,0,1,152.18,24.67Z"/><path class="cls-5" d="M151.51,44.72a3.74,3.74,0,0,1-3.81-3.79,3.83,3.83,0,1,1,3.81,3.79Z"/><path class="cls-5" d="M147.67,34.58a3.84,3.84,0,1,1,3.86-3.85A3.83,3.83,0,0,1,147.67,34.58Z"/><path class="cls-8" d="M188.82,36.06a2.12,2.12,0,0,1-2.18-2.17,2.15,2.15,0,0,1,4.29,0A2.11,2.11,0,0,1,188.82,36.06Z"/><path class="cls-8" d="M185.21,19.73a2.14,2.14,0,0,1,0-4.28,2.17,2.17,0,0,1,2.16,2.2A2.14,2.14,0,0,1,185.21,19.73Z"/><path class="cls-8" d="M159.87,58.26A2.14,2.14,0,0,1,162,56.09a2.21,2.21,0,0,1,2.18,2.12A2.17,2.17,0,0,1,162,60.39,2.09,2.09,0,0,1,159.87,58.26Z"/><path class="cls-8" d="M182.07,47.1a2.09,2.09,0,0,1,2.13,2.11,2.16,2.16,0,0,1-2.12,2.16,2.18,2.18,0,0,1-2.18-2.18A2.12,2.12,0,0,1,182.07,47.1Z"/><path class="cls-8" d="M167.61,59.77a2.1,2.1,0,0,1-2.13-2.12,2.13,2.13,0,0,1,2.11-2.15,2.14,2.14,0,1,1,0,4.27Z"/><path class="cls-8" d="M169.51,4.78a2.09,2.09,0,0,1-2.14,2.11,2.15,2.15,0,1,1,.09-4.3A2.1,2.1,0,0,1,169.51,4.78Z"/><path class="cls-8" d="M185.5,39.43a2.09,2.09,0,0,1,2.14-2.1,2.18,2.18,0,0,1,2.16,2.12,2.22,2.22,0,0,1-2.21,2.17A2.16,2.16,0,0,1,185.5,39.43Z"/><path class="cls-8" d="M183.24,44.62a2.11,2.11,0,0,1,2.11-2.14,2.15,2.15,0,1,1,0,4.3A2.1,2.1,0,0,1,183.24,44.62Z"/><path class="cls-8" d="M179.76,13a2.15,2.15,0,0,1,2.13-2.14A2.15,2.15,0,1,1,179.76,13Z"/><path class="cls-4" d="M151,53.83a2.13,2.13,0,0,1,2.17,2.09,2.15,2.15,0,1,1-4.3,0A2.13,2.13,0,0,1,151,53.83Z"/><path class="cls-8" d="M177.89,55.13a2.07,2.07,0,0,1-2.16-2.08,2.13,2.13,0,0,1,2.17-2.17A2.17,2.17,0,0,1,180,53,2.09,2.09,0,0,1,177.89,55.13Z"/><path class="cls-8" d="M172.8,4.33a2.15,2.15,0,0,1,2.13,2.14,2.15,2.15,0,1,1-4.3,0A2.14,2.14,0,0,1,172.8,4.33Z"/><path class="cls-4" d="M141.67,11.06a2.15,2.15,0,0,1,.13,4.29,2.15,2.15,0,1,1-.13-4.29Z"/><path class="cls-8" d="M188.8,26.14a2.14,2.14,0,1,1,0,4.27,2.14,2.14,0,1,1,0-4.27Z"/><path class="cls-8" d="M173,58a2.12,2.12,0,0,1-2.12-2.13A2.14,2.14,0,0,1,173,53.73a2.1,2.1,0,0,1,2.15,2.18A2.08,2.08,0,0,1,173,58Z"/><path class="cls-8" d="M187.55,20.64a2,2,0,0,1,2.14,2.08,2.11,2.11,0,0,1-2.15,2.18,2.18,2.18,0,0,1-2.13-2.15A2.09,2.09,0,0,1,187.55,20.64Z"/><path class="cls-8" d="M161.31,2.07h.81a2.14,2.14,0,1,1-2.49,2.23A2.18,2.18,0,0,1,161.31,2.07Z"/><path class="cls-7" d="M177.67,11.4a2.08,2.08,0,0,1-2.12-2.12,2.14,2.14,0,1,1,4.28,0A2.11,2.11,0,0,1,177.67,11.4Z"/><path class="cls-4" d="M135,30.62a2.11,2.11,0,0,1-2.13-2.12,2.15,2.15,0,1,1,4.3.05A2.09,2.09,0,0,1,135,30.62Z"/><path class="cls-4" d="M134.08,39.67a2.14,2.14,0,0,1,2.12-2.15,2.2,2.2,0,0,1,2.16,2.21,2.15,2.15,0,0,1-2.18,2.08A2.08,2.08,0,0,1,134.08,39.67Z"/><path class="cls-4" d="M134,23a2.08,2.08,0,0,1,2.1-2.13,2.11,2.11,0,0,1,2.15,2.1,2.14,2.14,0,0,1-2.16,2.19A2.1,2.1,0,0,1,134,23Z"/><path class="cls-4" d="M141.86,47.26a2.12,2.12,0,0,1,2.15,2.1,2.15,2.15,0,1,1-4.3,0A2.14,2.14,0,0,1,141.86,47.26Z"/><path class="cls-4" d="M143.79,9.37a2.11,2.11,0,0,1,2.13-2.12A2.17,2.17,0,0,1,148,9.4a2.09,2.09,0,0,1-2.19,2.13A2,2,0,0,1,143.79,9.37Z"/><path class="cls-4" d="M150.81,8.67a2,2,0,0,1-2.15-2.07,2.09,2.09,0,0,1,2.14-2.17,2.13,2.13,0,0,1,2.13,2.13A2.08,2.08,0,0,1,150.81,8.67Z"/><path class="cls-4" d="M136.3,17.82a2,2,0,0,1,2.06-2.15,2.13,2.13,0,1,1,.06,4.25A2.06,2.06,0,0,1,136.3,17.82Z"/><path class="cls-4" d="M148.2,53.15a2.08,2.08,0,0,1-2.09,2.14A2.11,2.11,0,0,1,144,53.13,2.08,2.08,0,0,1,146.1,51,2,2,0,0,1,148.2,53.15Z"/><path class="cls-4" d="M156.19,6.91A2,2,0,0,1,154,4.84a2.06,2.06,0,0,1,2.12-2.18,2.1,2.1,0,0,1,2.13,2.12A2.08,2.08,0,0,1,156.19,6.91Z"/><path class="cls-4" d="M156.43,55.56a2.13,2.13,0,0,1-.07,4.25,2.13,2.13,0,1,1,.07-4.25Z"/><path class="cls-4" d="M132.9,34.06a2.12,2.12,0,1,1,2,2.21A2,2,0,0,1,132.9,34.06Z"/><path class="cls-4" d="M140.65,44.82A2.07,2.07,0,0,1,138.56,47a2.13,2.13,0,1,1,0-4.25A2.07,2.07,0,0,1,140.65,44.82Z"/><path class="cls-9" d="M143.19,39.87a1.47,1.47,0,0,1,1.53,1.48,1.53,1.53,0,0,1-1.5,1.55,1.57,1.57,0,0,1-1.54-1.51A1.5,1.5,0,0,1,143.19,39.87Z"/><path class="cls-4" d="M155.88,50.12a1.48,1.48,0,0,1,1.5,1.51,1.52,1.52,0,0,1-3-.05A1.45,1.45,0,0,1,155.88,50.12Z"/><path class="cls-10" d="M162.39,8.47A1.49,1.49,0,0,1,164,9.92a1.53,1.53,0,0,1-3.05.09A1.46,1.46,0,0,1,162.39,8.47Z"/><path class="cls-9" d="M146.37,47.39a1.52,1.52,0,0,1-1.4-1.71,1.48,1.48,0,0,1,1.61-1.32A1.5,1.5,0,0,1,148,46,1.57,1.57,0,0,1,146.37,47.39Z"/><path class="cls-9" d="M142.25,20.11a1.49,1.49,0,0,1,1.51-1.52,1.54,1.54,0,0,1,1.51,1.53,1.51,1.51,0,1,1-3,0Z"/><path class="cls-11" d="M182.52,27.74A1.49,1.49,0,0,1,181,26.2a1.54,1.54,0,0,1,1.55-1.5,1.52,1.52,0,0,1,1.47,1.57A1.46,1.46,0,0,1,182.52,27.74Z"/><path class="cls-10" d="M176.65,45.14a1.49,1.49,0,0,1,1.41,1.54,1.55,1.55,0,0,1-1.57,1.48A1.52,1.52,0,0,1,175,46.51,1.46,1.46,0,0,1,176.65,45.14Z"/><path class="cls-9" d="M149.28,49.33a1.5,1.5,0,0,1,1.53-1.5,1.52,1.52,0,1,1,0,3A1.5,1.5,0,0,1,149.28,49.33Z"/><path class="cls-12" d="M178.8,16.56a1.51,1.51,0,0,1-1.49,1.54,1.61,1.61,0,0,1-1.55-1.51,1.55,1.55,0,0,1,1.52-1.53A1.48,1.48,0,0,1,178.8,16.56Z"/><path class="cls-11" d="M181.64,31.77a1.45,1.45,0,0,1,1.5-1.51,1.52,1.52,0,0,1,1.54,1.49,1.63,1.63,0,0,1-1.53,1.55A1.53,1.53,0,0,1,181.64,31.77Z"/><path class="cls-13" d="M166.42,10.87a1.5,1.5,0,0,1,1.45-1.57,1.57,1.57,0,0,1,1.58,1.56A1.54,1.54,0,0,1,168,12.33,1.46,1.46,0,0,1,166.42,10.87Z"/><path class="cls-9" d="M141.47,23.69A1.51,1.51,0,0,1,143,25.16a1.59,1.59,0,0,1-1.51,1.56,1.51,1.51,0,0,1-1.53-1.5A1.48,1.48,0,0,1,141.47,23.69Z"/><path class="cls-9" d="M150.24,12.56A1.44,1.44,0,0,1,151.71,11a1.51,1.51,0,0,1,1.55,1.48,1.59,1.59,0,0,1-1.51,1.56A1.49,1.49,0,0,1,150.24,12.56Z"/><path class="cls-11" d="M181.52,42.34A1.47,1.47,0,0,1,180,43.83a1.57,1.57,0,0,1-1.52-1.54A1.49,1.49,0,0,1,180,40.83,1.43,1.43,0,0,1,181.52,42.34Z"/><path class="cls-9" d="M156.89,12a1.49,1.49,0,0,1-1.5-1.53,1.52,1.52,0,1,1,3,.05A1.48,1.48,0,0,1,156.89,12Z"/><path class="cls-9" d="M142.12,30.69a1.48,1.48,0,0,1-1.51,1.5,1.52,1.52,0,0,1-1.49-1.54,1.48,1.48,0,0,1,1.53-1.49A1.46,1.46,0,0,1,142.12,30.69Z"/><path class="cls-14" d="M179.08,21a1.46,1.46,0,0,1,1.54-1.46,1.54,1.54,0,0,1,1.48,1.56,1.57,1.57,0,0,1-1.58,1.47A1.49,1.49,0,0,1,179.08,21Z"/><path class="cls-4" d="M141.18,37.67a1.46,1.46,0,0,1-1.49-1.52,1.53,1.53,0,0,1,1.56-1.48,1.51,1.51,0,0,1,1.48,1.55A1.46,1.46,0,0,1,141.18,37.67Z"/><path class="cls-15" d="M183.76,37.25a1.46,1.46,0,0,1-1.5,1.51,1.52,1.52,0,1,1,0-3A1.48,1.48,0,0,1,183.76,37.25Z"/><path class="cls-4" d="M145.75,15.83a1.48,1.48,0,0,1,1.48-1.55,1.51,1.51,0,0,1,1.52,1.53,1.47,1.47,0,0,1-1.45,1.49A1.45,1.45,0,0,1,145.75,15.83Z"/><path class="cls-14" d="M159.85,52.47a1.5,1.5,0,0,1,1.49-1.53,1.52,1.52,0,0,1,1.51,1.53A1.5,1.5,0,0,1,161.34,54,1.47,1.47,0,0,1,159.85,52.47Z"/><path class="cls-15" d="M173,14.58a1.46,1.46,0,0,1-1.53-1.42,1.54,1.54,0,0,1,1.45-1.6A1.47,1.47,0,0,1,174.47,13,1.44,1.44,0,0,1,173,14.58Z"/><path class="cls-10" d="M172.06,48.38a1.52,1.52,0,1,1,0,3,1.59,1.59,0,0,1-1.51-1.55A1.55,1.55,0,0,1,172.06,48.38Z"/><path class="cls-15" d="M166.87,53.37a1.47,1.47,0,0,1-1.53-1.49,1.54,1.54,0,0,1,1.55-1.51,1.5,1.5,0,0,1,1.47,1.48A1.45,1.45,0,0,1,166.87,53.37Z"/></svg>